<svg width="468" height="498" viewBox="0 0 468 498" fill="none" xmlns="http://www.w3.org/2000/svg">
<path d="M335.718 116.893C271.16 52.3346 169.952 48.8734 109.664 109.162C49.3754 169.45 52.8366 270.658 117.395 335.216C181.953 399.774 283.16 403.235 343.449 342.947C403.737 282.658 400.276 181.45 335.718 116.893Z" fill="#013762"/>
<path d="M116.892 162.167C52.3344 226.725 48.8732 327.933 109.162 388.222C169.45 448.51 270.658 445.049 335.216 380.491C399.774 315.933 403.235 214.725 342.947 154.437C282.658 94.1482 181.45 97.6094 116.892 162.167Z" fill="#0179B1"/>
<path d="M254.317 410.061C305.337 410.061 346.696 368.702 346.696 317.682C346.696 266.663 305.337 225.303 254.317 225.303C203.298 225.303 161.938 266.663 161.938 317.682C161.938 368.702 203.298 410.061 254.317 410.061Z" fill="#004C7A"/>
<path d="M184.676 176.497L358.237 347.394C362.162 351.259 368.473 351.222 372.352 347.311L464.893 254.03C468.807 250.084 468.753 243.702 464.771 239.824L372.814 150.249C368.895 146.431 362.634 146.472 358.765 150.341L328.63 180.477C324.875 184.232 318.84 184.397 314.885 180.853L245.759 118.906C241.942 115.486 236.158 115.505 232.364 118.949L184.971 161.967C180.718 165.827 180.583 172.468 184.676 176.497Z" fill="#013762"/>
<path d="M255.716 246.866L191.811 183.4L127.653 248.002L191.559 311.468L255.716 246.866Z" fill="#0179B1"/>
<path d="M331.451 288.572C332.616 287.386 334.525 287.374 335.705 288.546L381.379 333.906C382.555 335.073 382.561 336.973 381.394 338.148L357.949 361.755C356.788 362.925 354.9 362.938 353.722 361.785L307.855 316.888C306.669 315.727 306.65 313.825 307.813 312.642L331.451 288.572Z" fill="#47DAD6"/>
<path d="M34.0478 252.649L246.971 465.573C248.924 467.526 252.09 467.526 254.043 465.573L360.302 359.313C362.255 357.361 362.255 354.195 360.302 352.242L317.851 309.791C315.898 307.838 312.732 307.838 310.78 309.791L254.043 366.528C252.09 368.48 248.924 368.48 246.971 366.528L133.093 252.649C131.14 250.697 131.14 247.531 133.093 245.578L250.795 127.876C252.742 125.929 255.897 125.922 257.852 127.861L366.969 236.084C368.924 238.023 372.078 238.016 374.025 236.069L412.672 197.423C414.628 195.466 414.624 192.292 412.661 190.341L254.042 32.6341C252.088 30.6911 248.93 30.6956 246.982 32.6443L34.0478 245.578C32.0948 247.531 32.0948 250.697 34.0478 252.649Z" fill="#47DAD6"/>
</svg>
