<svg viewBox="0 0 800 500" fill="none" xmlns="http://www.w3.org/2000/svg" font-family="Sansation, ui-sans-serif, sans-serif">
  <rect width="800" height="500" rx="14" fill="#0F172A" stroke="rgba(252,211,77,0.3)"/>
  <circle cx="22" cy="20" r="5" fill="#fcd34d" opacity="0.8"/>
  <circle cx="42" cy="20" r="5" fill="#fbbf24" opacity="0.5"/>
  <circle cx="62" cy="20" r="5" fill="#ffffff" opacity="0.25"/>
  <line x1="0" y1="40" x2="800" y2="40" stroke="rgba(255,255,255,0.1)"/>
  <rect x="0" y="40" width="170" height="460" fill="#020617" opacity="0.7"/>
  <rect x="18" y="64" width="110" height="14" rx="4" fill="#fcd34d" opacity="0.9"/>
  <rect x="18" y="100" width="134" height="22" rx="6" fill="rgba(252,211,77,0.2)"/>
  <rect x="18" y="134" width="104" height="10" rx="3" fill="#ffffff" opacity="0.25"/>
  <rect x="18" y="158" width="118" height="10" rx="3" fill="#ffffff" opacity="0.25"/>
  <rect x="18" y="182" width="96" height="10" rx="3" fill="#ffffff" opacity="0.25"/>
  <rect x="18" y="206" width="110" height="10" rx="3" fill="#ffffff" opacity="0.25"/>
  <text x="200" y="84" fill="#ffffff" font-size="22" font-weight="700">Resumen Fiscal</text>
  <text x="200" y="105" fill="rgba(255,255,255,0.45)" font-size="12">Bóveda de CFDIs · sincronización con SAT</text>
  <rect x="636" y="62" width="140" height="30" rx="8" fill="#fcd34d"/>
  <text x="706" y="82" text-anchor="middle" fill="#0F172A" font-size="11" font-weight="700">Sincronizar con SAT</text>
  <rect x="200" y="126" width="135" height="64" rx="10" fill="rgba(255,255,255,0.05)" stroke="rgba(74,222,128,0.4)"/>
  <text x="214" y="150" fill="rgba(255,255,255,0.5)" font-size="10">Ingresos</text>
  <text x="214" y="176" fill="#4ade80" font-size="18" font-weight="700">$1.28M</text>
  <rect x="347" y="126" width="135" height="64" rx="10" fill="rgba(255,255,255,0.05)" stroke="rgba(248,113,113,0.4)"/>
  <text x="361" y="150" fill="rgba(255,255,255,0.5)" font-size="10">Gastos</text>
  <text x="361" y="176" fill="#f87171" font-size="18" font-weight="700">$847K</text>
  <rect x="494" y="126" width="135" height="64" rx="10" fill="rgba(255,255,255,0.05)" stroke="rgba(252,211,77,0.4)"/>
  <text x="508" y="150" fill="rgba(255,255,255,0.5)" font-size="10">Canceladas</text>
  <text x="508" y="176" fill="#fcd34d" font-size="18" font-weight="700">23</text>
  <rect x="641" y="126" width="135" height="64" rx="10" fill="rgba(255,255,255,0.05)" stroke="rgba(255,255,255,0.15)"/>
  <text x="655" y="150" fill="rgba(255,255,255,0.5)" font-size="10">Pendientes</text>
  <text x="655" y="176" fill="#ffffff" font-size="18" font-weight="700">$312K</text>
  <rect x="200" y="214" width="576" height="256" rx="10" fill="rgba(255,255,255,0.04)" stroke="rgba(255,255,255,0.1)"/>
  <text x="216" y="242" fill="rgba(255,255,255,0.6)" font-size="12" font-weight="700">Bóveda XML</text>
  <g font-size="11">
    <rect x="216" y="258" width="58" height="18" rx="9" fill="rgba(74,222,128,0.2)"/>
    <text x="245" y="271" text-anchor="middle" fill="#4ade80" font-size="9" font-weight="700">Vigente</text>
    <text x="296" y="271" fill="rgba(255,255,255,0.6)">2026-02-20</text>
    <text x="396" y="271" fill="rgba(255,255,255,0.45)" font-family="monospace">AAA010101AAA</text>
    <text x="560" y="271" fill="rgba(252,211,77,0.8)" font-family="monospace">6ba7b810...</text>
    <text x="756" y="271" text-anchor="end" fill="#ffffff" font-weight="700">$45,320</text>
  </g>
  <line x1="216" y1="288" x2="760" y2="288" stroke="rgba(255,255,255,0.08)"/>
  <g font-size="11">
    <rect x="216" y="300" width="58" height="18" rx="9" fill="rgba(74,222,128,0.2)"/>
    <text x="245" y="313" text-anchor="middle" fill="#4ade80" font-size="9" font-weight="700">Vigente</text>
    <text x="296" y="313" fill="rgba(255,255,255,0.6)">2026-02-19</text>
    <text x="396" y="313" fill="rgba(255,255,255,0.45)" font-family="monospace">CCC030303CCC</text>
    <text x="560" y="313" fill="rgba(252,211,77,0.8)" font-family="monospace">7ca8c921...</text>
    <text x="756" y="313" text-anchor="end" fill="#ffffff" font-weight="700">$12,840</text>
  </g>
  <line x1="216" y1="330" x2="760" y2="330" stroke="rgba(255,255,255,0.08)"/>
  <g font-size="11">
    <rect x="216" y="342" width="64" height="18" rx="9" fill="rgba(248,113,113,0.2)"/>
    <text x="248" y="355" text-anchor="middle" fill="#f87171" font-size="9" font-weight="700">Cancelado</text>
    <text x="296" y="355" fill="rgba(255,255,255,0.6)">2026-02-18</text>
    <text x="396" y="355" fill="rgba(255,255,255,0.45)" font-family="monospace">AAA010101AAA</text>
    <text x="560" y="355" fill="rgba(252,211,77,0.8)" font-family="monospace">8db9da32...</text>
    <text x="756" y="355" text-anchor="end" fill="#ffffff" font-weight="700">$98,750</text>
  </g>
  <line x1="216" y1="372" x2="760" y2="372" stroke="rgba(255,255,255,0.08)"/>
  <g font-size="11">
    <rect x="216" y="384" width="58" height="18" rx="9" fill="rgba(74,222,128,0.2)"/>
    <text x="245" y="397" text-anchor="middle" fill="#4ade80" font-size="9" font-weight="700">Vigente</text>
    <text x="296" y="397" fill="rgba(255,255,255,0.6)">2026-02-17</text>
    <text x="396" y="397" fill="rgba(255,255,255,0.45)" font-family="monospace">EEE050505EEE</text>
    <text x="560" y="397" fill="rgba(252,211,77,0.8)" font-family="monospace">9ecaeb43...</text>
    <text x="756" y="397" text-anchor="end" fill="#ffffff" font-weight="700">$28,500</text>
  </g>
  <line x1="216" y1="414" x2="760" y2="414" stroke="rgba(255,255,255,0.08)"/>
  <g font-size="11">
    <rect x="216" y="426" width="58" height="18" rx="9" fill="rgba(74,222,128,0.2)"/>
    <text x="245" y="439" text-anchor="middle" fill="#4ade80" font-size="9" font-weight="700">Vigente</text>
    <text x="296" y="439" fill="rgba(255,255,255,0.6)">2026-02-16</text>
    <text x="396" y="439" fill="rgba(255,255,255,0.45)" font-family="monospace">AAA010101AAA</text>
    <text x="560" y="439" fill="rgba(252,211,77,0.8)" font-family="monospace">afdbfc54...</text>
    <text x="756" y="439" text-anchor="end" fill="#ffffff" font-weight="700">$156,200</text>
  </g>
</svg>
