<svg width="665" height="689" viewBox="0 0 665 689" fill="none" xmlns="http://www.w3.org/2000/svg">
<ellipse cx="317.556" cy="226.054" rx="165.311" ry="154.378" transform="rotate(-135 317.556 226.054)" fill="#013762"/>
<ellipse cx="317.054" cy="271.329" rx="165.311" ry="154.378" transform="rotate(135 317.054 271.329)" fill="#0179B1"/>
<circle cx="345.317" cy="317.682" r="92.3788" fill="#004C7A"/>
<path d="M275.676 176.497L449.237 347.394C453.162 351.259 459.473 351.222 463.352 347.311L555.893 254.03C559.807 250.084 559.753 243.702 555.771 239.824L463.814 150.249C459.895 146.431 453.634 146.472 449.765 150.341L419.63 180.477C415.875 184.232 409.84 184.397 405.885 180.853L336.759 118.906C332.942 115.486 327.158 115.505 323.364 118.949L275.971 161.967C271.718 165.827 271.583 172.468 275.676 176.497Z" fill="#013762"/>
<rect x="282.811" y="183.4" width="90.0661" height="91.0469" transform="rotate(44.8021 282.811 183.4)" fill="#0179B1"/>
<path d="M422.451 288.572C423.616 287.386 425.525 287.374 426.705 288.546L472.379 333.906C473.555 335.073 473.561 336.973 472.394 338.148L448.949 361.755C447.788 362.925 445.9 362.938 444.722 361.785L398.855 316.888C397.669 315.727 397.65 313.825 398.813 312.642L422.451 288.572Z" fill="#47DAD6"/>
<path d="M125.048 252.649L337.971 465.573C339.924 467.526 343.09 467.526 345.043 465.573L451.302 359.313C453.255 357.361 453.255 354.195 451.302 352.242L408.851 309.791C406.898 307.838 403.732 307.838 401.78 309.791L345.043 366.528C343.09 368.48 339.924 368.48 337.971 366.528L224.093 252.649C222.14 250.697 222.14 247.531 224.093 245.578L341.795 127.876C343.742 125.929 346.897 125.922 348.852 127.861L457.969 236.084C459.924 238.023 463.078 238.016 465.025 236.069L503.672 197.423C505.628 195.466 505.624 192.292 503.661 190.341L345.042 32.634C343.088 30.691 339.93 30.6955 337.982 32.6442L125.048 245.578C123.095 247.531 123.095 250.697 125.048 252.649Z" fill="#47DAD6"/>
<path d="M70.5625 523.625V537.875H25.8125V560.375H68.4375V575.188H25.625V598.625H71.4375V613H9.375V523.625H70.5625ZM86.75 613V523.625H103.312L150.5 588.75V523.625H166.438V613H149.875L102.688 546.5V613H86.75ZM243.688 523.625V538H218.062V613H201.5V538H175.875V523.625H243.688ZM262.312 613H245.312L283.25 523.625H301.062L339.812 613H322L311.812 588.625H282.125L287.812 574.25H305.812L291.75 540.688L262.312 613ZM367.312 523.625V598.625H402.812V613H350.75V523.625H367.312ZM476.938 523.625V538H451.312V613H434.75V538H409.125V523.625H476.938ZM547.562 523.625V537.875H502.812V560.375H545.438V575.188H502.625V598.625H548.438V613H486.375V523.625H547.562ZM580.312 523.625V613H563.75V523.625H580.312ZM643.188 523.625L605.062 565.312L647.188 613H624.25L589.688 571.25V560.5L622.938 523.625H643.188Z" fill="#0179B1"/>
</svg>
